<svg xmlns="http://www.w3.org/2000/svg" viewBox="0 0 512 512"><defs><style>.cls-1{fill:#3d3d3f;fill-rule:evenodd;}</style></defs><g id="Layer_2" data-name="Layer 2"><g id="Layer_1-2" data-name="Layer 1"><path class="cls-1" d="M296.13,354.17c49.89-5.89,103-24,103-110.19,0-24.49-8.63-44.45-22.68-59.87,2.27-5.89,9.52-28.11-2.73-58.94,0,0-18.14-5.9-60.76,22.67-18.14-5-38.09-8.17-56.68-8.17a214.06,214.06,0,0,0-56.7,8.17c-43.08-28.57-61.22-22.67-61.22-22.67-12.24,30.83-5,53.05-2.72,58.94-14.06,15.42-22.67,35.38-22.67,59.87,0,86.17,53.05,104.3,102.94,110.19-6.34,5.46-12.24,15.88-14.51,30.39-12.7,5.44-45.81,15.87-65.76-18.59,0,0-11.79-21.31-34-22.67,0,0-22.22-.45-1.81,13.59,0,0,15,6.81,24.94,32.65,0,0,13.6,43.09,76.18,29.48v38.55c0,5.9-4.53,12.7-15.86,10.89C96.14,439,32.2,354.63,32.2,255.77c0-123.81,100.22-224,224-224,123.35,0,224,100.21,223.57,224,0,98.86-63.95,182.75-152.83,212.69-11.34,2.26-15.87-4.53-15.87-10.89V395.45c0-20.87-6.81-34.47-15-41.28ZM512,256.23C512,114.73,397.26,0,256.23,0,114.73,0,0,114.73,0,256.23,0,397.26,114.73,512,256.23,512,397.26,512,512,397.26,512,256.23Z"/></g></g></svg>